<?xml version="1.0" standalone="no"?><svg xmlns="http://www.w3.org/2000/svg" viewBox="0 0 1440 320"><path fill="141414" fill-opacity="1" d="M0,192L30,202.7C60,213,120,235,180,240C240,245,300,235,360,197.3C420,160,480,96,540,112C600,128,660,224,720,224C780,224,840,128,900,96C960,64,1020,96,1080,133.3C1140,171,1200,213,1260,197.3C1320,181,1380,107,1410,69.3L1440,32L1440,320L1410,320C1380,320,1320,320,1260,320C1200,320,1140,320,1080,320C1020,320,960,320,900,320C840,320,780,320,720,320C660,320,600,320,540,320C480,320,420,320,360,320C300,320,240,320,180,320C120,320,60,320,30,320L0,320Z"></path></svg>